<mxfile host="app.diagrams.net" modified="2023-08-29T08:50:42.609Z" agent="Mozilla/5.0 (Windows NT 10.0; Win64; x64) AppleWebKit/537.36 (KHTML, like Gecko) Chrome/116.0.0.0 Safari/537.36 Edg/116.0.1938.54" etag="_bLSRZaV1lbldE7XCkDV" version="21.6.8" type="github">
  <diagram name="第 1 页" id="4Lf9_RHffd5M5_sBFVX4">
    <mxGraphModel dx="1379" dy="796" grid="1" gridSize="10" guides="1" tooltips="1" connect="1" arrows="1" fold="1" page="1" pageScale="1" pageWidth="827" pageHeight="1169" math="0" shadow="0">
      <root>
        <mxCell id="0" />
        <mxCell id="1" parent="0" />
        <mxCell id="0z8CAwwoSVDNRoBTpK5x-17" style="edgeStyle=orthogonalEdgeStyle;rounded=0;orthogonalLoop=1;jettySize=auto;html=1;entryX=0.5;entryY=0;entryDx=0;entryDy=0;" edge="1" parent="1" source="0z8CAwwoSVDNRoBTpK5x-2" target="0z8CAwwoSVDNRoBTpK5x-13">
          <mxGeometry relative="1" as="geometry" />
        </mxCell>
        <mxCell id="0z8CAwwoSVDNRoBTpK5x-2" value="«interface»&lt;br&gt;LogisticsReceiveRecordFileMapper" style="html=1;whiteSpace=wrap;" vertex="1" parent="1">
          <mxGeometry x="430" y="170" width="110" height="50" as="geometry" />
        </mxCell>
        <mxCell id="0z8CAwwoSVDNRoBTpK5x-18" style="edgeStyle=orthogonalEdgeStyle;rounded=0;orthogonalLoop=1;jettySize=auto;html=1;" edge="1" parent="1" source="0z8CAwwoSVDNRoBTpK5x-3" target="0z8CAwwoSVDNRoBTpK5x-15">
          <mxGeometry relative="1" as="geometry" />
        </mxCell>
        <mxCell id="0z8CAwwoSVDNRoBTpK5x-3" value="«interface»&lt;br&gt;LogisticsReceiveRecordMapper" style="html=1;whiteSpace=wrap;" vertex="1" parent="1">
          <mxGeometry x="630" y="170" width="110" height="50" as="geometry" />
        </mxCell>
        <mxCell id="0z8CAwwoSVDNRoBTpK5x-13" value="LogisticsReceiveRecordFile" style="swimlane;fontStyle=0;childLayout=stackLayout;horizontal=1;startSize=26;fillColor=none;horizontalStack=0;resizeParent=1;resizeParentMax=0;resizeLast=0;collapsible=1;marginBottom=0;whiteSpace=wrap;html=1;" vertex="1" parent="1">
          <mxGeometry x="415" y="320" width="140" height="50" as="geometry" />
        </mxCell>
        <mxCell id="0z8CAwwoSVDNRoBTpK5x-14" value="&amp;nbsp;" style="text;strokeColor=none;fillColor=none;align=left;verticalAlign=top;spacingLeft=4;spacingRight=4;overflow=hidden;rotatable=0;points=[[0,0.5],[1,0.5]];portConstraint=eastwest;whiteSpace=wrap;html=1;" vertex="1" parent="0z8CAwwoSVDNRoBTpK5x-13">
          <mxGeometry y="26" width="140" height="24" as="geometry" />
        </mxCell>
        <mxCell id="0z8CAwwoSVDNRoBTpK5x-15" value="LogisticsReceiveRecord" style="swimlane;fontStyle=0;childLayout=stackLayout;horizontal=1;startSize=26;fillColor=none;horizontalStack=0;resizeParent=1;resizeParentMax=0;resizeLast=0;collapsible=1;marginBottom=0;whiteSpace=wrap;html=1;" vertex="1" parent="1">
          <mxGeometry x="615" y="320" width="140" height="50" as="geometry" />
        </mxCell>
        <mxCell id="0z8CAwwoSVDNRoBTpK5x-16" value="&amp;nbsp;" style="text;strokeColor=none;fillColor=none;align=left;verticalAlign=top;spacingLeft=4;spacingRight=4;overflow=hidden;rotatable=0;points=[[0,0.5],[1,0.5]];portConstraint=eastwest;whiteSpace=wrap;html=1;" vertex="1" parent="0z8CAwwoSVDNRoBTpK5x-15">
          <mxGeometry y="26" width="140" height="24" as="geometry" />
        </mxCell>
        <mxCell id="0z8CAwwoSVDNRoBTpK5x-19" style="edgeStyle=orthogonalEdgeStyle;rounded=0;orthogonalLoop=1;jettySize=auto;html=1;entryX=0.5;entryY=0;entryDx=0;entryDy=0;" edge="1" source="0z8CAwwoSVDNRoBTpK5x-20" target="0z8CAwwoSVDNRoBTpK5x-23" parent="1">
          <mxGeometry relative="1" as="geometry" />
        </mxCell>
        <mxCell id="0z8CAwwoSVDNRoBTpK5x-20" value="«interface»&lt;br&gt;LogisticsSendRecordFileMapper" style="html=1;whiteSpace=wrap;" vertex="1" parent="1">
          <mxGeometry x="215" y="530" width="110" height="50" as="geometry" />
        </mxCell>
        <mxCell id="0z8CAwwoSVDNRoBTpK5x-21" style="edgeStyle=orthogonalEdgeStyle;rounded=0;orthogonalLoop=1;jettySize=auto;html=1;" edge="1" source="0z8CAwwoSVDNRoBTpK5x-22" target="0z8CAwwoSVDNRoBTpK5x-25" parent="1">
          <mxGeometry relative="1" as="geometry" />
        </mxCell>
        <mxCell id="0z8CAwwoSVDNRoBTpK5x-22" value="«interface»&lt;br&gt;LogisticsSendRecordMapper" style="html=1;whiteSpace=wrap;" vertex="1" parent="1">
          <mxGeometry x="415" y="530" width="110" height="50" as="geometry" />
        </mxCell>
        <mxCell id="0z8CAwwoSVDNRoBTpK5x-23" value="LogisticsSendRecordFile" style="swimlane;fontStyle=0;childLayout=stackLayout;horizontal=1;startSize=26;fillColor=none;horizontalStack=0;resizeParent=1;resizeParentMax=0;resizeLast=0;collapsible=1;marginBottom=0;whiteSpace=wrap;html=1;" vertex="1" parent="1">
          <mxGeometry x="200" y="680" width="140" height="50" as="geometry" />
        </mxCell>
        <mxCell id="0z8CAwwoSVDNRoBTpK5x-24" value="&amp;nbsp;" style="text;strokeColor=none;fillColor=none;align=left;verticalAlign=top;spacingLeft=4;spacingRight=4;overflow=hidden;rotatable=0;points=[[0,0.5],[1,0.5]];portConstraint=eastwest;whiteSpace=wrap;html=1;" vertex="1" parent="0z8CAwwoSVDNRoBTpK5x-23">
          <mxGeometry y="26" width="140" height="24" as="geometry" />
        </mxCell>
        <mxCell id="0z8CAwwoSVDNRoBTpK5x-25" value="LogisticsSendRecord" style="swimlane;fontStyle=0;childLayout=stackLayout;horizontal=1;startSize=26;fillColor=none;horizontalStack=0;resizeParent=1;resizeParentMax=0;resizeLast=0;collapsible=1;marginBottom=0;whiteSpace=wrap;html=1;" vertex="1" parent="1">
          <mxGeometry x="400" y="680" width="140" height="50" as="geometry" />
        </mxCell>
        <mxCell id="0z8CAwwoSVDNRoBTpK5x-26" value="&amp;nbsp;" style="text;strokeColor=none;fillColor=none;align=left;verticalAlign=top;spacingLeft=4;spacingRight=4;overflow=hidden;rotatable=0;points=[[0,0.5],[1,0.5]];portConstraint=eastwest;whiteSpace=wrap;html=1;" vertex="1" parent="0z8CAwwoSVDNRoBTpK5x-25">
          <mxGeometry y="26" width="140" height="24" as="geometry" />
        </mxCell>
        <mxCell id="0z8CAwwoSVDNRoBTpK5x-31" style="edgeStyle=orthogonalEdgeStyle;rounded=0;orthogonalLoop=1;jettySize=auto;html=1;" edge="1" parent="1" source="0z8CAwwoSVDNRoBTpK5x-27" target="0z8CAwwoSVDNRoBTpK5x-30">
          <mxGeometry relative="1" as="geometry" />
        </mxCell>
        <mxCell id="0z8CAwwoSVDNRoBTpK5x-27" value="«interface»&lt;br&gt;SettleConfigController" style="html=1;whiteSpace=wrap;" vertex="1" parent="1">
          <mxGeometry x="215" y="860" width="110" height="50" as="geometry" />
        </mxCell>
        <mxCell id="0z8CAwwoSVDNRoBTpK5x-32" style="edgeStyle=orthogonalEdgeStyle;rounded=0;orthogonalLoop=1;jettySize=auto;html=1;" edge="1" parent="1" source="0z8CAwwoSVDNRoBTpK5x-28" target="0z8CAwwoSVDNRoBTpK5x-29">
          <mxGeometry relative="1" as="geometry" />
        </mxCell>
        <mxCell id="0z8CAwwoSVDNRoBTpK5x-28" value="«interface»&lt;br&gt;SettleRecordController" style="html=1;whiteSpace=wrap;" vertex="1" parent="1">
          <mxGeometry x="430" y="860" width="110" height="50" as="geometry" />
        </mxCell>
        <mxCell id="0z8CAwwoSVDNRoBTpK5x-64" style="edgeStyle=orthogonalEdgeStyle;rounded=0;orthogonalLoop=1;jettySize=auto;html=1;entryX=0.5;entryY=0;entryDx=0;entryDy=0;" edge="1" parent="1" source="0z8CAwwoSVDNRoBTpK5x-29" target="0z8CAwwoSVDNRoBTpK5x-37">
          <mxGeometry relative="1" as="geometry" />
        </mxCell>
        <mxCell id="0z8CAwwoSVDNRoBTpK5x-29" value="«interface»&lt;br&gt;SettleRecordService" style="html=1;whiteSpace=wrap;" vertex="1" parent="1">
          <mxGeometry x="430" y="990" width="110" height="50" as="geometry" />
        </mxCell>
        <mxCell id="0z8CAwwoSVDNRoBTpK5x-59" style="edgeStyle=orthogonalEdgeStyle;rounded=0;orthogonalLoop=1;jettySize=auto;html=1;entryX=0.5;entryY=0;entryDx=0;entryDy=0;" edge="1" parent="1" source="0z8CAwwoSVDNRoBTpK5x-30" target="0z8CAwwoSVDNRoBTpK5x-34">
          <mxGeometry relative="1" as="geometry">
            <Array as="points">
              <mxPoint x="270" y="1110" />
              <mxPoint x="155" y="1110" />
            </Array>
          </mxGeometry>
        </mxCell>
        <mxCell id="0z8CAwwoSVDNRoBTpK5x-60" style="edgeStyle=orthogonalEdgeStyle;rounded=0;orthogonalLoop=1;jettySize=auto;html=1;" edge="1" parent="1" source="0z8CAwwoSVDNRoBTpK5x-30" target="0z8CAwwoSVDNRoBTpK5x-35">
          <mxGeometry relative="1" as="geometry" />
        </mxCell>
        <mxCell id="0z8CAwwoSVDNRoBTpK5x-62" style="edgeStyle=orthogonalEdgeStyle;rounded=0;orthogonalLoop=1;jettySize=auto;html=1;entryX=0.5;entryY=0;entryDx=0;entryDy=0;" edge="1" parent="1" source="0z8CAwwoSVDNRoBTpK5x-30" target="0z8CAwwoSVDNRoBTpK5x-37">
          <mxGeometry relative="1" as="geometry">
            <Array as="points">
              <mxPoint x="270" y="1110" />
              <mxPoint x="502" y="1110" />
            </Array>
          </mxGeometry>
        </mxCell>
        <mxCell id="0z8CAwwoSVDNRoBTpK5x-63" style="edgeStyle=orthogonalEdgeStyle;rounded=0;orthogonalLoop=1;jettySize=auto;html=1;" edge="1" parent="1" source="0z8CAwwoSVDNRoBTpK5x-30" target="0z8CAwwoSVDNRoBTpK5x-38">
          <mxGeometry relative="1" as="geometry">
            <Array as="points">
              <mxPoint x="270" y="1110" />
              <mxPoint x="675" y="1110" />
            </Array>
          </mxGeometry>
        </mxCell>
        <mxCell id="0z8CAwwoSVDNRoBTpK5x-30" value="«interface»&lt;br&gt;SettleConfigService" style="html=1;whiteSpace=wrap;" vertex="1" parent="1">
          <mxGeometry x="215" y="990" width="110" height="50" as="geometry" />
        </mxCell>
        <mxCell id="0z8CAwwoSVDNRoBTpK5x-55" style="edgeStyle=orthogonalEdgeStyle;rounded=0;orthogonalLoop=1;jettySize=auto;html=1;" edge="1" parent="1" source="0z8CAwwoSVDNRoBTpK5x-34" target="0z8CAwwoSVDNRoBTpK5x-43">
          <mxGeometry relative="1" as="geometry" />
        </mxCell>
        <mxCell id="0z8CAwwoSVDNRoBTpK5x-34" value="«interface»&lt;br&gt;SettleConfigDetailMapper" style="html=1;whiteSpace=wrap;" vertex="1" parent="1">
          <mxGeometry x="100" y="1180" width="110" height="50" as="geometry" />
        </mxCell>
        <mxCell id="0z8CAwwoSVDNRoBTpK5x-56" style="edgeStyle=orthogonalEdgeStyle;rounded=0;orthogonalLoop=1;jettySize=auto;html=1;" edge="1" parent="1" source="0z8CAwwoSVDNRoBTpK5x-35" target="0z8CAwwoSVDNRoBTpK5x-45">
          <mxGeometry relative="1" as="geometry" />
        </mxCell>
        <mxCell id="0z8CAwwoSVDNRoBTpK5x-35" value="«interface»&lt;br&gt;SettleConfigMapper" style="html=1;whiteSpace=wrap;" vertex="1" parent="1">
          <mxGeometry x="273" y="1180" width="110" height="50" as="geometry" />
        </mxCell>
        <mxCell id="0z8CAwwoSVDNRoBTpK5x-57" style="edgeStyle=orthogonalEdgeStyle;rounded=0;orthogonalLoop=1;jettySize=auto;html=1;" edge="1" parent="1" source="0z8CAwwoSVDNRoBTpK5x-37" target="0z8CAwwoSVDNRoBTpK5x-49">
          <mxGeometry relative="1" as="geometry" />
        </mxCell>
        <mxCell id="0z8CAwwoSVDNRoBTpK5x-37" value="«interface»&lt;br&gt;SettleRecordFileMapper" style="html=1;whiteSpace=wrap;" vertex="1" parent="1">
          <mxGeometry x="447" y="1180" width="110" height="50" as="geometry" />
        </mxCell>
        <mxCell id="0z8CAwwoSVDNRoBTpK5x-58" style="edgeStyle=orthogonalEdgeStyle;rounded=0;orthogonalLoop=1;jettySize=auto;html=1;" edge="1" parent="1" source="0z8CAwwoSVDNRoBTpK5x-38" target="0z8CAwwoSVDNRoBTpK5x-51">
          <mxGeometry relative="1" as="geometry" />
        </mxCell>
        <mxCell id="0z8CAwwoSVDNRoBTpK5x-38" value="«interface»&lt;br&gt;SettleRecordMapper" style="html=1;whiteSpace=wrap;" vertex="1" parent="1">
          <mxGeometry x="620" y="1180" width="110" height="50" as="geometry" />
        </mxCell>
        <mxCell id="0z8CAwwoSVDNRoBTpK5x-43" value="SettleConfigDetail" style="swimlane;fontStyle=0;childLayout=stackLayout;horizontal=1;startSize=26;fillColor=none;horizontalStack=0;resizeParent=1;resizeParentMax=0;resizeLast=0;collapsible=1;marginBottom=0;whiteSpace=wrap;html=1;" vertex="1" parent="1">
          <mxGeometry x="77" y="1310" width="140" height="52" as="geometry" />
        </mxCell>
        <mxCell id="0z8CAwwoSVDNRoBTpK5x-44" value="&amp;nbsp;" style="text;strokeColor=none;fillColor=none;align=left;verticalAlign=top;spacingLeft=4;spacingRight=4;overflow=hidden;rotatable=0;points=[[0,0.5],[1,0.5]];portConstraint=eastwest;whiteSpace=wrap;html=1;" vertex="1" parent="0z8CAwwoSVDNRoBTpK5x-43">
          <mxGeometry y="26" width="140" height="26" as="geometry" />
        </mxCell>
        <mxCell id="0z8CAwwoSVDNRoBTpK5x-45" value="SettleConfig" style="swimlane;fontStyle=0;childLayout=stackLayout;horizontal=1;startSize=26;fillColor=none;horizontalStack=0;resizeParent=1;resizeParentMax=0;resizeLast=0;collapsible=1;marginBottom=0;whiteSpace=wrap;html=1;" vertex="1" parent="1">
          <mxGeometry x="231" y="1310" width="140" height="52" as="geometry" />
        </mxCell>
        <mxCell id="0z8CAwwoSVDNRoBTpK5x-46" value="&amp;nbsp;" style="text;strokeColor=none;fillColor=none;align=left;verticalAlign=top;spacingLeft=4;spacingRight=4;overflow=hidden;rotatable=0;points=[[0,0.5],[1,0.5]];portConstraint=eastwest;whiteSpace=wrap;html=1;" vertex="1" parent="0z8CAwwoSVDNRoBTpK5x-45">
          <mxGeometry y="26" width="140" height="26" as="geometry" />
        </mxCell>
        <mxCell id="0z8CAwwoSVDNRoBTpK5x-49" value="SettleRecordFile" style="swimlane;fontStyle=0;childLayout=stackLayout;horizontal=1;startSize=26;fillColor=none;horizontalStack=0;resizeParent=1;resizeParentMax=0;resizeLast=0;collapsible=1;marginBottom=0;whiteSpace=wrap;html=1;" vertex="1" parent="1">
          <mxGeometry x="384" y="1310" width="140" height="52" as="geometry" />
        </mxCell>
        <mxCell id="0z8CAwwoSVDNRoBTpK5x-50" value="&amp;nbsp;" style="text;strokeColor=none;fillColor=none;align=left;verticalAlign=top;spacingLeft=4;spacingRight=4;overflow=hidden;rotatable=0;points=[[0,0.5],[1,0.5]];portConstraint=eastwest;whiteSpace=wrap;html=1;" vertex="1" parent="0z8CAwwoSVDNRoBTpK5x-49">
          <mxGeometry y="26" width="140" height="26" as="geometry" />
        </mxCell>
        <mxCell id="0z8CAwwoSVDNRoBTpK5x-51" value="SettleRecord" style="swimlane;fontStyle=0;childLayout=stackLayout;horizontal=1;startSize=26;fillColor=none;horizontalStack=0;resizeParent=1;resizeParentMax=0;resizeLast=0;collapsible=1;marginBottom=0;whiteSpace=wrap;html=1;" vertex="1" parent="1">
          <mxGeometry x="538" y="1310" width="140" height="52" as="geometry" />
        </mxCell>
        <mxCell id="0z8CAwwoSVDNRoBTpK5x-52" value="&amp;nbsp;" style="text;strokeColor=none;fillColor=none;align=left;verticalAlign=top;spacingLeft=4;spacingRight=4;overflow=hidden;rotatable=0;points=[[0,0.5],[1,0.5]];portConstraint=eastwest;whiteSpace=wrap;html=1;" vertex="1" parent="0z8CAwwoSVDNRoBTpK5x-51">
          <mxGeometry y="26" width="140" height="26" as="geometry" />
        </mxCell>
      </root>
    </mxGraphModel>
  </diagram>
</mxfile>
